HIERARCHY
ROOT root
{
	OFFSET	0	13.1	24.9
	CHANNELS 6  Xposition Yposition Zposition Xrotation Yrotation Zrotation
	JOINT spine_1
	{
		OFFSET	0	9.99999	0
		CHANNELS 3  Xrotation Yrotation Zrotation
		JOINT spine_2
		{
			OFFSET	0	112	-10
			CHANNELS 3  Xrotation Yrotation Zrotation
			JOINT spine_3
			{
				OFFSET	0	206.5	19.3
				CHANNELS 3  Xrotation Yrotation Zrotation
				JOINT spine_4
				{
					OFFSET	0	110.4	14.6
					CHANNELS 3  Xrotation Yrotation Zrotation
					JOINT neck_1
					{
						OFFSET	0	71.8	-50.3
						CHANNELS 3  Xrotation Yrotation Zrotation
						JOINT neck_2
						{
							OFFSET	0	86.2	-25.8
							CHANNELS 3  Xrotation Yrotation Zrotation
							JOINT head_ee
							{
								OFFSET	0	179.8	-8.7
								CHANNELS 3  Xrotation Yrotation Zrotation
								End Site
								{
									OFFSET	1	0	0
								}
							}
						}
					}
					JOINT left_clavicle
					{
						OFFSET	-43.2	22.4	-70.8
						CHANNELS 3  Xrotation Yrotation Zrotation
						JOINT left_shoulder
						{
							OFFSET	-93.9	-5.79999	48.7
							CHANNELS 3  Xrotation Yrotation Zrotation
							JOINT left_elbow
							{
								OFFSET	-291.4	-30.8	15.2
								CHANNELS 3  Xrotation Yrotation Zrotation
								JOINT left_lowarm_twist
								{
									OFFSET	-110.7	-3.89999	13.6
									CHANNELS 3  Xrotation Yrotation Zrotation
									JOINT left_hand
									{
										OFFSET	-110.7	-3.89999	13.6
										CHANNELS 3  Xrotation Yrotation Zrotation
										JOINT left_ee
										{
											OFFSET	-80.8	-5.10001	12.1
											CHANNELS 3  Xrotation Yrotation Zrotation
											End Site
											{
												OFFSET	1	0	0
											}
										}
									}
								}
							}
						}
					}
					JOINT right_clavicle
					{
						OFFSET	43.2	22.4	-70.8
						CHANNELS 3  Xrotation Yrotation Zrotation
						JOINT right_shoulder
						{
							OFFSET	93.9	-5.79999	48.7
							CHANNELS 3  Xrotation Yrotation Zrotation
							JOINT right_elbow
							{
								OFFSET	291.4	-30.8	15.2
								CHANNELS 3  Xrotation Yrotation Zrotation
								JOINT right_lowarm_twist
								{
									OFFSET	110.7	-3.89999	13.6
									CHANNELS 3  Xrotation Yrotation Zrotation
									JOINT right_hand
									{
										OFFSET	110.7	-3.89999	13.6
										CHANNELS 3  Xrotation Yrotation Zrotation
										JOINT right_ee
										{
											OFFSET	80.8	-5.10001	12.1
											CHANNELS 3  Xrotation Yrotation Zrotation
											End Site
											{
												OFFSET	1	0	0
											}
										}
									}
								}
							}
						}
					}
				}
			}
		}
	}
	JOINT left_hip
	{
		OFFSET	-82.8	-127.5	0.300001
		CHANNELS 3  Xrotation Yrotation Zrotation
		JOINT left_knee
		{
			OFFSET	-28.2	-396.7	2.2
			CHANNELS 3  Xrotation Yrotation Zrotation
			JOINT left_ankle
			{
				OFFSET	-11.7	-411.3	35.4
				CHANNELS 3  Xrotation Yrotation Zrotation
				JOINT left_toes
				{
					OFFSET	0	-60	-88.6
					CHANNELS 3  Xrotation Yrotation Zrotation
					JOINT left_foot_ee
					{
						OFFSET	-22.5	-16.5	-42.2
						CHANNELS 3  Xrotation Yrotation Zrotation
						End Site
						{
							OFFSET	1	0	0
						}
					}
				}
			}
		}
	}
	JOINT right_hip
	{
		OFFSET	82.8	-127.5	0.300001
		CHANNELS 3  Xrotation Yrotation Zrotation
		JOINT right_knee
		{
			OFFSET	28.2	-396.7	2.2
			CHANNELS 3  Xrotation Yrotation Zrotation
			JOINT right_ankle
			{
				OFFSET	11.7	-411.3	35.4
				CHANNELS 3  Xrotation Yrotation Zrotation
				JOINT right_toes
				{
					OFFSET	0	-60	-88.6
					CHANNELS 3  Xrotation Yrotation Zrotation
					JOINT right_foot_ee
					{
						OFFSET	22.5	-16.5	-42.2
						CHANNELS 3  Xrotation Yrotation Zrotation
						End Site
						{
							OFFSET	1	0	0
						}
					}
				}
			}
		}
	}
}
MOTION
Frames: 9
Frame Time: 0.02
3574.42 741.953 -1474.73 -36.6270643193 82.0871086609 37.1311576214 2.99227 -0.0480432 -0.428231 2.99238 -0.0206967 -0.43042 2.9925 0.0479392 -0.428242 2.99224 -0.0202947 -0.430439 -14.2535 12.2688 0.327904 -14.7028 23.228 4.35765 -0.0 0.0 -0.0 -2.03352 22.112 -0.297076 -6.65985 -23.3163 67.0603 2.50016 -51.0736 1.19463 -14.6963 -0.74299 1.72086 -0.291894 9.94515 2.24739 -0.0 0.0 -0.0 6.11364 23.0996 -10.5738 -26.0662 23.8024 -64.7354 0.562906 15.5811 -0.0770146 -6.48835 0.273287 -0.782682 1.33307 -21.8371 -16.7824 0.0 0.0 0.0 14.3676 18.8038 -9.39462 -12.2232 0.307234 1.84713 16.1643 22.6311 -2.32538 -1.22173 0.0 0.0 -0.0 0.0 -0.0 19.1524 11.4435 -3.73064 -30.7359 -0.0151755 -4.66069 14.2386 17.2928 2.19581 12.0157 -0.0 -0.0 0.0 0.0 0.0 
3574.42 741.953 -1474.73 -33.9994732622 81.5538603859 34.4766001307 2.99227 -0.0480432 -0.428231 2.99238 -0.0206967 -0.43042 2.9925 0.0479392 -0.428242 2.99224 -0.0202947 -0.430439 -14.2535 12.2688 0.327904 -14.7028 23.228 4.35765 -0.0 0.0 -0.0 -2.03352 22.112 -0.297076 -6.65985 -23.3163 67.0603 2.50016 -51.0736 1.19463 -14.6963 -0.74299 1.72086 -0.291894 9.94515 2.24739 -0.0 0.0 -0.0 6.11364 23.0996 -10.5738 -26.0662 23.8024 -64.7354 0.562906 15.5811 -0.0770146 -6.48835 0.273287 -0.782682 1.33307 -21.8371 -16.7824 0.0 0.0 0.0 14.3676 18.8038 -9.39462 -12.2232 0.307234 1.84713 16.1643 22.6311 -2.32538 -1.22173 0.0 0.0 -0.0 0.0 -0.0 19.1524 11.4435 -3.73064 -30.7359 -0.0151755 -4.66069 14.2386 17.2928 2.19581 12.0157 -0.0 -0.0 0.0 0.0 0.0 
3574.42 741.953 -1474.73 -30.93074028 80.805222653 31.3712251452 2.99227 -0.0480432 -0.428231 2.99238 -0.0206967 -0.43042 2.9925 0.0479392 -0.428242 2.99224 -0.0202947 -0.430439 -14.2535 12.2688 0.327904 -14.7028 23.228 4.35765 -0.0 0.0 -0.0 -2.03352 22.112 -0.297076 -6.65985 -23.3163 67.0603 2.50016 -51.0736 1.19463 -14.6963 -0.74299 1.72086 -0.291894 9.94515 2.24739 -0.0 0.0 -0.0 6.11364 23.0996 -10.5738 -26.0662 23.8024 -64.7354 0.562906 15.5811 -0.0770146 -6.48835 0.273287 -0.782682 1.33307 -21.8371 -16.7824 0.0 0.0 0.0 14.3676 18.8038 -9.39462 -12.2232 0.307234 1.84713 16.1643 22.6311 -2.32538 -1.22173 0.0 0.0 -0.0 0.0 -0.0 19.1524 11.4435 -3.73064 -30.7359 -0.0151755 -4.66069 14.2386 17.2928 2.19581 12.0157 -0.0 -0.0 0.0 0.0 0.0 
3571.96653021 743.267 -1473.73515228 -40.0149690745 82.4988331159 40.575306357 2.91665 -0.12878 -0.445957 2.91675 -0.100142 -0.453248 2.91752 -0.026267 -0.463435 2.91723 -0.0991275 -0.453471 -14.3216 11.4968 -0.748155 -14.7404 22.4027 3.09008 -0.0 0.0 -0.0 -2.16786 22.3348 -0.448036 -6.9894 -23.9389 67.5308 2.65086 -52.7008 1.31322 -14.8285 -0.75164 1.73539 -0.228858 8.83809 2.19296 -0.0 0.0 -0.0 6.17435 24.7344 -10.549 -25.3628 23.6785 -65.8469 0.558284 15.4593 -0.075778 -5.34245 0.218592 -0.64675 1.39213 -22.953 -17.4804 0.0 0.0 0.0 13.8054 18.9931 -8.5766 -14.4484 0.32045 2.18826 19.5729 21.4985 -2.76341 -0.269109 0.0 0.0 -0.0 0.0 -0.0 19.0876 11.8059 -4.21374 -30.711 -0.0161767 -4.65699 15.1895 16.5697 2.31887 12.3806 -0.0 -0.0 0.0 0.0 0.0 
3571.9453246 743.267 -1473.78913994 -34.5998500095 81.4992459326 35.1072450406 2.91665 -0.12878 -0.445957 2.91675 -0.100142 -0.453248 2.91752 -0.026267 -0.463435 2.91723 -0.0991275 -0.453471 -14.3216 11.4968 -0.748155 -14.7404 22.4027 3.09008 -0.0 0.0 -0.0 -2.16786 22.3348 -0.448036 -6.9894 -23.9389 67.5308 2.65086 -52.7008 1.31322 -14.8285 -0.75164 1.73539 -0.228858 8.83809 2.19296 -0.0 0.0 -0.0 6.17435 24.7344 -10.549 -25.3628 23.6785 -65.8469 0.558284 15.4593 -0.075778 -5.34245 0.218592 -0.64675 1.39213 -22.953 -17.4804 0.0 0.0 0.0 13.8054 18.9931 -8.5766 -14.4484 0.32045 2.18826 19.5729 21.4985 -2.76341 -0.269109 0.0 0.0 -0.0 0.0 -0.0 19.0876 11.8059 -4.21374 -30.711 -0.0161767 -4.65699 15.1895 16.5697 2.31887 12.3806 -0.0 -0.0 0.0 0.0 0.0 
3571.92084139 743.267 -1473.85624818 -29.5075846123 80.1876110202 29.9496777976 2.91665 -0.12878 -0.445957 2.91675 -0.100142 -0.453248 2.91752 -0.026267 -0.463435 2.91723 -0.0991275 -0.453471 -14.3216 11.4968 -0.748155 -14.7404 22.4027 3.09008 -0.0 0.0 -0.0 -2.16786 22.3348 -0.448036 -6.9894 -23.9389 67.5308 2.65086 -52.7008 1.31322 -14.8285 -0.75164 1.73539 -0.228858 8.83809 2.19296 -0.0 0.0 -0.0 6.17435 24.7344 -10.549 -25.3628 23.6785 -65.8469 0.558284 15.4593 -0.075778 -5.34245 0.218592 -0.64675 1.39213 -22.953 -17.4804 0.0 0.0 0.0 13.8054 18.9931 -8.5766 -14.4484 0.32045 2.18826 19.5729 21.4985 -2.76341 -0.269109 0.0 0.0 -0.0 0.0 -0.0 19.0876 11.8059 -4.21374 -30.711 -0.0161767 -4.65699 15.1895 16.5697 2.31887 12.3806 -0.0 -0.0 0.0 0.0 0.0 
3571.89637084 743.267 -1473.92966766 -25.365149545 78.7001068522 25.7363471153 2.91665 -0.12878 -0.445957 2.91675 -0.100142 -0.453248 2.91752 -0.026267 -0.463435 2.91723 -0.0991275 -0.453471 -14.3216 11.4968 -0.748155 -14.7404 22.4027 3.09008 -0.0 0.0 -0.0 -2.16786 22.3348 -0.448036 -6.9894 -23.9389 67.5308 2.65086 -52.7008 1.31322 -14.8285 -0.75164 1.73539 -0.228858 8.83809 2.19296 -0.0 0.0 -0.0 6.17435 24.7344 -10.549 -25.3628 23.6785 -65.8469 0.558284 15.4593 -0.075778 -5.34245 0.218592 -0.64675 1.39213 -22.953 -17.4804 0.0 0.0 0.0 13.8054 18.9931 -8.5766 -14.4484 0.32045 2.18826 19.5729 21.4985 -2.76341 -0.269109 0.0 0.0 -0.0 0.0 -0.0 19.0876 11.8059 -4.21374 -30.711 -0.0161767 -4.65699 15.1895 16.5697 2.31887 12.3806 -0.0 -0.0 0.0 0.0 0.0 
3571.8690565 743.267 -1474.02153457 -21.5608279488 76.796262879 21.843964633 2.91665 -0.12878 -0.445957 2.91675 -0.100142 -0.453248 2.91752 -0.026267 -0.463435 2.91723 -0.0991275 -0.453471 -14.3216 11.4968 -0.748155 -14.7404 22.4027 3.09008 -0.0 0.0 -0.0 -2.16786 22.3348 -0.448036 -6.9894 -23.9389 67.5308 2.65086 -52.7008 1.31322 -14.8285 -0.75164 1.73539 -0.228858 8.83809 2.19296 -0.0 0.0 -0.0 6.17435 24.7344 -10.549 -25.3628 23.6785 -65.8469 0.558284 15.4593 -0.075778 -5.34245 0.218592 -0.64675 1.39213 -22.953 -17.4804 0.0 0.0 0.0 13.8054 18.9931 -8.5766 -14.4484 0.32045 2.18826 19.5729 21.4985 -2.76341 -0.269109 0.0 0.0 -0.0 0.0 -0.0 19.0876 11.8059 -4.21374 -30.711 -0.0161767 -4.65699 15.1895 16.5697 2.31887 12.3806 -0.0 -0.0 0.0 0.0 0.0 
3566.83064657 742.872 -1474.50259181 -19.147380073 77.4632198439 19.4368569082 2.60619 -0.0976103 -0.376121 2.60627 -0.0734791 -0.381569 2.60675 -0.00931911 -0.388468 2.60654 -0.070553 -0.382121 -14.3816 10.9496 -1.49181 -14.7756 21.8059 2.21041 -0.0 0.0 -0.0 -2.48088 22.832 -0.79725 -7.71937 -24.1817 67.6146 2.74941 -53.7031 1.39213 -14.9208 -0.757709 1.74554 -0.183668 8.05349 2.15939 -0.0 0.0 -0.0 6.10232 25.7926 -10.2856 -25.377 23.5161 -66.5962 0.551952 15.2923 -0.074099 -4.55441 0.182564 -0.552655 1.43717 -23.7673 -17.9932 0.0 0.0 0.0 14.154 18.8237 -8.1706 -15.9893 0.321835 2.42467 21.9258 20.6314 -3.05287 0.359103 -0.0 -0.0 -0.0 0.0 -0.0 18.8084 12.1052 -4.41856 -30.772 -0.0137254 -4.66602 15.9573 16.0804 2.4182 12.6684 -0.0 -0.0 0.0 0.0 0.0 
